HIERARCHY
ROOT root
{
	OFFSET	0	13.1	24.9
	CHANNELS 6  Xposition Yposition Zposition Xrotation Yrotation Zrotation
	JOINT spine_1
	{
		OFFSET	0	9.99999	0
		CHANNELS 3  Xrotation Yrotation Zrotation
		JOINT spine_2
		{
			OFFSET	0	112	-10
			CHANNELS 3  Xrotation Yrotation Zrotation
			JOINT spine_3
			{
				OFFSET	0	206.5	19.3
				CHANNELS 3  Xrotation Yrotation Zrotation
				JOINT spine_4
				{
					OFFSET	0	110.4	14.6
					CHANNELS 3  Xrotation Yrotation Zrotation
					JOINT neck_1
					{
						OFFSET	0	71.8	-50.3
						CHANNELS 3  Xrotation Yrotation Zrotation
						JOINT neck_2
						{
							OFFSET	0	86.2	-25.8
							CHANNELS 3  Xrotation Yrotation Zrotation
							JOINT head_ee
							{
								OFFSET	0	179.8	-8.7
								CHANNELS 3  Xrotation Yrotation Zrotation
								End Site
								{
									OFFSET	1	0	0
								}
							}
						}
					}
					JOINT left_clavicle
					{
						OFFSET	-43.2	22.4	-70.8
						CHANNELS 3  Xrotation Yrotation Zrotation
						JOINT left_shoulder
						{
							OFFSET	-93.9	-5.79999	48.7
							CHANNELS 3  Xrotation Yrotation Zrotation
							JOINT left_elbow
							{
								OFFSET	-291.4	-30.8	15.2
								CHANNELS 3  Xrotation Yrotation Zrotation
								JOINT left_lowarm_twist
								{
									OFFSET	-110.7	-3.89999	13.6
									CHANNELS 3  Xrotation Yrotation Zrotation
									JOINT left_hand
									{
										OFFSET	-110.7	-3.89999	13.6
										CHANNELS 3  Xrotation Yrotation Zrotation
										JOINT left_ee
										{
											OFFSET	-80.8	-5.10001	12.1
											CHANNELS 3  Xrotation Yrotation Zrotation
											End Site
											{
												OFFSET	1	0	0
											}
										}
									}
								}
							}
						}
					}
					JOINT right_clavicle
					{
						OFFSET	43.2	22.4	-70.8
						CHANNELS 3  Xrotation Yrotation Zrotation
						JOINT right_shoulder
						{
							OFFSET	93.9	-5.79999	48.7
							CHANNELS 3  Xrotation Yrotation Zrotation
							JOINT right_elbow
							{
								OFFSET	291.4	-30.8	15.2
								CHANNELS 3  Xrotation Yrotation Zrotation
								JOINT right_lowarm_twist
								{
									OFFSET	110.7	-3.89999	13.6
									CHANNELS 3  Xrotation Yrotation Zrotation
									JOINT right_hand
									{
										OFFSET	110.7	-3.89999	13.6
										CHANNELS 3  Xrotation Yrotation Zrotation
										JOINT right_ee
										{
											OFFSET	80.8	-5.10001	12.1
											CHANNELS 3  Xrotation Yrotation Zrotation
											End Site
											{
												OFFSET	1	0	0
											}
										}
									}
								}
							}
						}
					}
				}
			}
		}
	}
	JOINT left_hip
	{
		OFFSET	-82.8	-127.5	0.300001
		CHANNELS 3  Xrotation Yrotation Zrotation
		JOINT left_knee
		{
			OFFSET	-28.2	-396.7	2.2
			CHANNELS 3  Xrotation Yrotation Zrotation
			JOINT left_ankle
			{
				OFFSET	-11.7	-411.3	35.4
				CHANNELS 3  Xrotation Yrotation Zrotation
				JOINT left_toes
				{
					OFFSET	0	-60	-88.6
					CHANNELS 3  Xrotation Yrotation Zrotation
					JOINT left_foot_ee
					{
						OFFSET	-22.5	-16.5	-42.2
						CHANNELS 3  Xrotation Yrotation Zrotation
						End Site
						{
							OFFSET	1	0	0
						}
					}
				}
			}
		}
	}
	JOINT right_hip
	{
		OFFSET	82.8	-127.5	0.300001
		CHANNELS 3  Xrotation Yrotation Zrotation
		JOINT right_knee
		{
			OFFSET	28.2	-396.7	2.2
			CHANNELS 3  Xrotation Yrotation Zrotation
			JOINT right_ankle
			{
				OFFSET	11.7	-411.3	35.4
				CHANNELS 3  Xrotation Yrotation Zrotation
				JOINT right_toes
				{
					OFFSET	0	-60	-88.6
					CHANNELS 3  Xrotation Yrotation Zrotation
					JOINT right_foot_ee
					{
						OFFSET	22.5	-16.5	-42.2
						CHANNELS 3  Xrotation Yrotation Zrotation
						End Site
						{
							OFFSET	1	0	0
						}
					}
				}
			}
		}
	}
}
MOTION
Frames: 12
Frame Time: 0.02
2464.5 741.077 -1082.2 -22.0283 60.3061 10.7032 4.79594 0.775267 3.60018 4.80298 0.544763 3.64214 4.83188 0.0779943 3.68178 4.81357 0.658097 3.6234 -12.1517 7.97367 -6.76844 -12.2256 19.4508 -4.22122 -0.0 0.0 -0.0 0.0645818 9.25991 1.20993 -32.6978 -21.1892 64.3685 0.472357 -13.17 0.0545286 6.63996 0.186179 -0.827263 1.41388 -12.7422 4.10787 -0.0 0.0 -0.0 11.5649 11.0351 -23.2932 -8.11229 19.496 -61.6289 0.915597 24.3968 -0.197936 23.0031 -0.229138 2.90983 -0.553479 -8.14603 0.194949 0.0 0.0 0.0 39.8613 -3.96005 7.71264 -58.2348 -2.01242 8.3281 34.7473 21.5223 -4.54698 -2.03045 0.0 0.0 -0.0 0.0 -0.0 24.3209 -19.15 10.5544 -20.2569 -0.292497 -3.07865 39.0411 5.99517 4.86374 2.99483 -0.0 -0.0 0.0 0.0 0.0 
2455.92 743.43 -1090.15 -24.5441 61.1552 14.1917 4.92221 0.570222 3.38284 4.92851 0.353936 3.41222 4.94427 -0.0757037 3.42968 4.92816 0.466581 3.39867 -12.863 8.49697 -7.28599 -12.9828 20.7234 -4.42766 -0.0 0.0 -0.0 -0.883852 8.13145 -0.596968 -30.9081 -22.3317 67.2204 0.387647 -10.8703 0.0368835 6.0088 0.172623 -0.747778 1.4288 -9.43709 5.64603 -0.0 0.0 -0.0 11.6437 9.45958 -23.4725 -6.49513 19.4573 -61.1649 1.03604 27.1673 -0.250338 21.3894 -0.251375 2.7049 -0.306712 -1.67278 1.33501 0.0 0.0 0.0 40.9056 -7.94405 6.18946 -57.7649 -1.96353 8.27461 33.2982 12.9129 -4.26312 -5.2212 0.0 0.0 -0.0 0.0 -0.0 20.3458 -8.11147 6.5153 -16.5893 -0.320654 -2.51672 33.9323 2.5435 4.33807 2.53064 -0.0 -0.0 0.0 0.0 0.0 
2442.5 741.762 -1098.7 -24.7929 59.9416 14.2099 4.90918 0.580623 3.42295 4.91563 0.361768 3.45292 4.93201 -0.0737575 3.47101 4.91551 0.475019 3.43918 -11.485 8.60811 -8.16392 -11.5064 21.5937 -5.52212 -0.0 0.0 -0.0 -1.18643 8.78803 -1.0376 -33.4183 -22.2653 67.6394 0.477399 -13.3056 0.0556831 5.07562 0.150977 -0.630538 1.9077 -10.6957 8.35399 -0.0 0.0 -0.0 11.7505 10.1847 -23.7139 -5.58186 20.2599 -61.257 1.08904 28.3452 -0.275023 21.5875 -0.248956 2.73009 0.271028 1.97215 -0.984972 0.0 0.0 0.0 41.7352 -6.75375 3.47713 -54.3126 -1.61815 7.8698 31.4312 12.8111 -4.06782 -7.37139 0.0 0.0 -0.0 0.0 -0.0 19.5847 -9.32779 5.92571 -14.152 -0.319455 -2.14279 32.4873 6.59977 4.2475 0.128811 -0.0 -0.0 0.0 0.0 0.0 
2417.42 740.221 -1106.92 -25.3264 58.4949 15.0319 5.18444 0.656043 3.1992 5.19002 0.451249 3.23441 5.21034 0.0584447 3.26518 5.19592 0.573116 3.21508 -11.9829 8.51594 -7.34452 -12.0555 20.856 -4.65056 -0.0 0.0 -0.0 -1.79455 8.83462 -2.09903 -33.4546 -23.3031 70.1063 0.374879 -10.5204 0.0345139 5.87411 0.169617 -0.730835 1.88845 -8.06241 9.36811 -0.0 0.0 -0.0 11.7601 9.78077 -23.7348 -4.8009 20.6378 -60.5036 1.19175 30.5547 -0.325531 20.788 -0.258184 2.62839 0.385586 3.62102 -1.06174 0.0 0.0 0.0 41.3567 -7.08623 2.89976 -53.7393 -1.56319 7.80061 32.4205 14.832 -4.1921 -7.63569 0.0 0.0 -0.0 0.0 -0.0 17.1712 -2.72573 4.52845 -11.5164 -0.300265 -1.73891 30.3308 7.2416 4.03149 -1.7304 0.0 0.0 0.0 0.0 0.0 
2395.61 735.933 -1111.06 -25.801 58.8219 15.5728 5.34746 0.520379 3.09059 5.35271 0.32276 3.1174 5.36521 -0.046729 3.1337 5.35179 0.448525 3.10182 -10.4453 9.0052 -5.03655 -10.5162 20.3344 -2.56288 -0.0 0.0 -0.0 -2.66097 8.44593 -3.69541 -33.1896 -23.1671 73.2396 0.416036 -11.6454 0.042426 6.22252 0.177312 -0.774676 1.72282 -5.82319 9.19026 -0.0 0.0 -0.0 11.6476 9.43642 -23.4811 -4.50313 20.83 -60.2781 1.31515 33.0822 -0.390608 20.3346 -0.262787 2.57066 0.55755 6.63985 -0.946162 0.0 0.0 0.0 42.7431 -15.7867 5.966 -32.6074 -0.064606 4.93678 19.2025 17.7153 -2.67622 -14.6466 0.0 0.0 -0.0 0.0 -0.0 14.1119 -2.68911 4.55672 -7.4153 -0.233531 -1.11328 29.8959 9.00541 4.01574 -3.45753 0.0 0.0 0.0 0.0 0.0 
2379.54 734.189 -1115.69 -28.5123 59.9843 18.129 5.55211 0.269766 3.03469 5.55723 0.0762056 3.0457 5.55614 -0.27334 3.03437 5.54336 0.209085 3.03947 -9.55061 9.43385 -5.14017 -9.58291 21.2205 -2.72748 -0.0 0.0 -0.0 -2.93785 7.25323 -4.40671 -32.8254 -23.6182 75.7879 0.307016 -8.64786 0.0232137 5.25634 0.155318 -0.653216 1.85581 -3.37715 11.123 -0.0 0.0 -0.0 11.522 8.96185 -23.1975 -3.98949 20.8213 -60.2305 1.39539 34.6518 -0.435328 19.7274 -0.268234 2.49329 0.781386 9.12839 -1.39886 0.0 0.0 0.0 42.8007 -18.806 6.97903 -29.2894 0.0706253 4.44563 14.4545 19.0077 -2.06175 -16.2388 0.0 0.0 -0.0 0.0 -0.0 13.5883 -0.106558 4.67087 -6.48837 -0.212253 -0.972622 26.5065 7.57923 3.61133 -5.25107 0.0 0.0 0.0 0.0 0.0 
2358.09 730.306 -1121.73 -29.5339 60.4037 18.9563 5.72746 0.31977 2.89459 5.73211 0.135011 2.90906 5.73405 -0.190135 2.90598 5.72237 0.270998 2.89956 -8.80933 9.16314 -7.61112 -8.70532 22.4226 -5.40063 -0.0 0.0 -0.0 -3.08802 6.35441 -4.84508 -32.3238 -24.2671 77.2099 0.322 -9.06305 0.0255203 4.78109 0.143748 -0.593609 1.76433 0.784792 12.1848 -0.0 0.0 -0.0 11.7262 8.6918 -23.6513 -3.64168 20.2223 -58.3982 1.45836 35.8433 -0.47167 18.8234 -0.274825 2.37801 0.50991 9.95321 0.786453 0.0 0.0 0.0 43.2965 -22.0443 7.38625 -24.992 0.203085 3.79956 11.746 21.7264 -1.70963 -16.5409 0.0 0.0 -0.0 0.0 -0.0 11.8557 3.08173 4.89768 -5.92417 -0.198188 -0.887182 31.1649 6.91561 4.11494 -6.99845 0.0 0.0 0.0 0.0 0.0 
2337.15 727.595 -1129.26 -30.5128 60.732 19.7845 5.87276 0.263023 3.01356 5.87781 0.070819 3.02417 5.87604 -0.25939 3.01387 5.86343 0.219627 3.01703 -9.45578 9.50759 -5.92094 -9.46195 21.89 -3.49878 -0.0 0.0 -0.0 -3.22896 6.0204 -5.16568 -32.9304 -23.8847 77.2992 0.332633 -9.35713 0.0272222 4.53829 0.137647 -0.563194 1.7435 3.60715 13.148 -0.0 0.0 -0.0 11.3987 8.29873 -22.9171 -3.43081 20.4378 -59.6412 1.5456 37.4367 -0.523737 17.5372 -0.281066 2.21386 0.75945 12.1488 0.0455552 0.0 0.0 0.0 43.5646 -25.6499 7.40946 -19.3192 0.303118 2.93517 5.8085 24.5119 -0.872213 -19.594 0.0 0.0 -0.0 0.0 -0.0 9.46908 4.12206 5.139 -4.79476 -0.167506 -0.716574 33.1494 7.05169 4.3226 -8.23191 0.0 0.0 0.0 0.0 0.0 
2318.94 724.356 -1132.0 -31.9457 61.2439 21.05 5.96331 0.30618 2.93926 5.96811 0.11861 2.95278 5.96885 -0.199244 2.94844 5.95682 0.2687 2.94292 -8.7547 9.64512 -5.86456 -8.72318 22.12 -3.55642 -0.0 0.0 -0.0 -3.59771 5.39548 -5.96623 -32.4858 -24.0103 78.7229 0.346923 -9.75153 0.029594 4.23467 0.129836 -0.525196 1.59259 5.50694 12.8532 -0.0 0.0 -0.0 11.5888 8.07528 -23.337 -3.24297 19.4999 -58.5151 1.53422 37.2325 -0.516832 17.0757 -0.282406 2.15493 0.646625 12.3269 0.882402 0.0 0.0 0.0 44.331 -27.5208 7.44474 -16.1808 0.321563 2.45406 4.58934 26.2764 -0.698 -19.6894 0.0 0.0 -0.0 0.0 -0.0 8.31545 2.66098 5.76436 -3.45937 -0.126895 -0.515659 34.0251 6.98864 4.4095 -9.41289 0.0 0.0 0.0 0.0 0.0 
2305.32 719.76 -1136.53 -34.0233 61.6749 23.3335 5.83718 0.324591 2.92724 5.84194 0.137747 2.94195 5.84384 -0.185447 2.93933 5.83189 0.280888 2.93176 -10.7903 9.91756 -6.37638 -10.8781 22.931 -3.55215 -0.0 0.0 -0.0 -4.03053 4.94627 -6.86266 -31.1128 -24.6463 79.1375 0.411674 -11.5266 0.04155 4.36558 0.133228 -0.541574 1.67332 6.90973 13.9237 -0.0 0.0 -0.0 11.3036 7.54406 -22.6968 -1.55312 19.4723 -58.9488 1.56128 37.716 -0.533296 16.6316 -0.283248 2.09822 0.581462 12.2768 1.29995 0.0 0.0 0.0 44.4187 -30.4496 6.67051 -9.01667 0.264918 1.357 1.12124 28.8278 -0.174654 -21.7969 0.0 0.0 -0.0 0.0 -0.0 7.79212 3.06693 5.2462 -3.37381 -0.124134 -0.50282 35.3441 4.76311 4.5037 -10.0157 0.0 0.0 0.0 0.0 0.0 
2287.49 717.173 -1142.63 -34.6862 62.6606 24.0976 5.93011 0.276227 2.78394 5.93441 0.0985889 2.79586 5.93445 -0.203975 2.79016 5.92366 0.239062 2.78737 -11.1528 9.90322 -5.92492 -11.2749 22.597 -3.03694 -0.0 0.0 -0.0 -4.04883 4.40848 -7.00621 -30.6845 -24.7667 79.2965 0.423065 -11.8366 0.0438564 4.09971 0.126299 -0.508319 1.61806 8.56352 14.1622 -0.0 0.0 -0.0 11.202 7.33025 -22.4693 -1.79294 19.3098 -58.6974 1.55873 37.6709 -0.531741 15.5859 -0.283495 1.96465 0.715234 12.0537 0.302539 0.0 0.0 0.0 43.5608 -32.5138 6.1386 -3.98392 0.143406 0.594469 -0.57575 29.0942 0.0901672 -22.7872 0.0 0.0 -0.0 0.0 -0.0 7.06342 4.31311 5.46322 -5.32136 -0.18223 -0.796048 35.54 4.55378 4.51958 -10.6241 0.0 0.0 0.0 0.0 0.0 
2269.15 711.657 -1151.11 -36.2269 63.5646 26.0381 5.85041 0.271355 2.69243 5.85444 0.099543 2.70423 5.85475 -0.196874 2.6989 5.84466 0.231678 2.69613 -10.8404 10.1066 -4.77976 -10.975 22.2361 -1.93082 -0.0 0.0 -0.0 -4.46046 4.88273 -7.68304 -30.0704 -24.6921 78.6387 0.459249 -12.8168 0.0515814 3.82933 0.119093 -0.474532 1.46348 9.36618 13.4259 -0.0 0.0 -0.0 11.2364 7.12394 -22.5414 -1.54491 19.0912 -58.5678 1.52845 37.1286 -0.513346 15.4252 -0.283316 1.94413 0.62595 12.4583 1.07824 0.0 0.0 0.0 42.9999 -34.2639 4.99721 1.61636 -0.0699272 -0.238166 -2.16843 29.6917 0.342035 -24.1255 0.0 0.0 -0.0 0.0 -0.0 6.04364 2.45788 4.98513 -5.7462 -0.193576 -0.860259 36.241 5.58516 4.60142 -10.4972 0.0 0.0 0.0 0.0 0.0 
